<svg width="5158" height="1938" viewBox="0 0 5158 1938" fill="none" xmlns="http://www.w3.org/2000/svg">
<path d="M966.986 1937.06C1498.24 1937.06 1934.6 1490.71 1933.92 965.857C1933.89 938.59 1911.24 917.225 1883.97 917.225H791.053C762.684 917.225 739.686 940.227 739.686 968.602C739.686 996.976 762.684 1019.98 791.053 1019.98L1491.65 1019.98C1527.15 1019.98 1551.76 1055.23 1535.79 1086.94C1436.34 1284.41 1231.82 1419.86 995.666 1419.86C719.487 1419.86 486.571 1234.59 414.378 981.538C411.969 973.093 411.969 964.11 414.378 955.665C486.571 702.608 719.487 517.34 995.666 517.34C1176.7 517.34 1339.14 596.942 1449.91 723.061C1467 742.513 1495.38 748.489 1517.8 735.546L1797.84 573.901C1821.06 560.499 1830.16 531.387 1817.38 507.821C1653.66 205.946 1334.23 1 966.986 1C432.935 1 0 434.402 0 969.03C0 1503.66 432.935 1937.06 966.986 1937.06Z" fill="#158F46"/>
<!-- ... rest of the SVG paths ... -->
</svg> 