<svg width="392" height="24" viewBox="0 0 392 24" fill="none" xmlns="http://www.w3.org/2000/svg">
<path d="M21.544 0.439999L19.784 5.24H12.904L6.376 23.16H1.256L7.784 5.24H0.264L2.024 0.439999H21.544ZM41.421 3.8L35.597 19.8C35.277 20.7173 34.669 21.5067 33.773 22.168C32.877 22.8293 31.9597 23.16 31.021 23.16H18.221C17.517 23.16 16.9517 22.9573 16.525 22.552C16.0983 22.1467 15.885 21.6133 15.885 20.952C15.885 20.5893 15.949 20.2053 16.077 19.8L21.901 3.8C22.2423 2.88267 22.861 2.09333 23.757 1.432C24.653 0.770665 25.5703 0.439999 26.509 0.439999H39.309C40.013 0.439999 40.5783 0.642665 41.005 1.048C41.4317 1.45333 41.645 1.98667 41.645 2.648C41.645 3.01067 41.5703 3.39467 41.421 3.8ZM35.789 5.24H26.509L21.741 18.36H31.021L35.789 5.24ZM62.546 3.8L56.722 19.8C56.402 20.7173 55.794 21.5067 54.898 22.168C54.002 22.8293 53.0847 23.16 52.146 23.16H35.986L44.274 0.439999H60.434C61.138 0.439999 61.7033 0.642665 62.13 1.048C62.5567 1.45333 62.77 1.98667 62.77 2.648C62.77 3.01067 62.6953 3.39467 62.546 3.8ZM56.914 5.24H47.634L42.866 18.36H52.146L56.914 5.24ZM80.567 23.16H74.775L74.583 18.04H65.783L61.879 23.16H56.087L73.431 0.439999H79.735L80.567 23.16ZM74.423 13.24L74.199 7L69.431 13.24H74.423ZM105.622 0.439999L92.182 12.824L88.406 23.16H83.286L87.062 12.824L82.614 0.439999H89.078L91.606 7.352L99.158 0.439999H105.622ZM120.207 0.439999L111.919 23.16H106.799L115.087 0.439999H120.207ZM141.325 0.439999L133.037 23.16H128.013L123.405 10.072L118.637 23.16H113.517L121.805 0.439999H126.829L131.437 13.528L136.205 0.439999H141.325Z" fill="#464444"/>
<path d="M169.202 3.8L163.378 19.8C163.058 20.7173 162.45 21.5067 161.554 22.168C160.658 22.8293 159.741 23.16 158.802 23.16H142.642L150.93 0.439999H167.09C167.794 0.439999 168.36 0.642665 168.786 1.048C169.213 1.45333 169.426 1.98667 169.426 2.648C169.426 3.01067 169.352 3.39467 169.202 3.8ZM163.57 5.24H154.29L149.522 18.36H158.802L163.57 5.24ZM189.975 0.439999L188.215 5.24H175.415L174.359 8.12H187.159L185.431 12.92H172.631L170.647 18.36H183.447L181.687 23.16H167.127C166.423 23.16 165.858 22.9573 165.431 22.552C165.005 22.1467 164.791 21.6133 164.791 20.952C164.791 20.5893 164.855 20.2053 164.983 19.8L170.807 3.8C171.149 2.88267 171.767 2.09333 172.663 1.432C173.559 0.770665 174.477 0.439999 175.415 0.439999H189.975ZM209.507 0.439999L207.747 5.24H194.947L193.891 8.12H206.691L204.963 12.92H192.163L188.419 23.16H183.299L190.339 3.8C190.68 2.88267 191.299 2.09333 192.195 1.432C193.091 0.770665 194.008 0.439999 194.947 0.439999H209.507ZM216.238 0.439999L207.95 23.16H202.83L211.118 0.439999H216.238Z" fill="#464444"/>
<path d="M244.109 3.8L242.829 7.32C242.573 8.06667 242.114 8.73867 241.453 9.336C240.813 9.912 240.109 10.3067 239.341 10.52C240.258 10.8613 240.717 11.544 240.717 12.568C240.717 12.9307 240.653 13.3147 240.525 13.72L237.069 23.16H231.949L235.693 12.92H226.413L222.669 23.16H217.549L225.837 0.439999H241.997C242.701 0.439999 243.266 0.642665 243.693 1.048C244.119 1.45333 244.333 1.98667 244.333 2.648C244.333 3.01067 244.258 3.39467 244.109 3.8ZM238.477 5.24H229.197L228.141 8.12H237.421L238.477 5.24ZM264.882 0.439999L263.122 5.24H250.322L249.266 8.12H262.066L260.338 12.92H247.538L245.554 18.36H258.354L256.594 23.16H242.034C241.33 23.16 240.764 22.9573 240.338 22.552C239.911 22.1467 239.698 21.6133 239.698 20.952C239.698 20.5893 239.762 20.2053 239.89 19.8L245.714 3.8C246.055 2.88267 246.674 2.09333 247.57 1.432C248.466 0.770665 249.383 0.439999 250.322 0.439999H264.882ZM286.013 0.439999L284.253 5.24H269.853L268.797 8.12H279.837C280.562 8.12 281.138 8.32267 281.565 8.728C281.991 9.13333 282.205 9.66667 282.205 10.328C282.205 10.6907 282.13 11.0747 281.981 11.48L278.941 19.8C278.621 20.7173 278.013 21.5067 277.117 22.168C276.221 22.8293 275.303 23.16 274.365 23.16H258.205L259.965 18.36H274.365L276.349 12.92H265.309C264.583 12.92 264.007 12.7173 263.581 12.312C263.154 11.9067 262.941 11.3733 262.941 10.712C262.941 10.3493 263.015 9.96533 263.165 9.56L265.245 3.8C265.586 2.88267 266.205 2.09333 267.101 1.432C267.997 0.770665 268.914 0.439999 269.853 0.439999H286.013ZM305.538 0.439999L303.778 5.24H290.978L289.922 8.12H302.722L300.994 12.92H288.194L286.21 18.36H299.01L297.25 23.16H282.69C281.986 23.16 281.42 22.9573 280.994 22.552C280.567 22.1467 280.354 21.6133 280.354 20.952C280.354 20.5893 280.418 20.2053 280.546 19.8L286.37 3.8C286.711 2.88267 287.33 2.09333 288.226 1.432C289.122 0.770665 290.039 0.439999 290.978 0.439999H305.538ZM322.317 23.16H316.525L316.333 18.04H307.533L303.629 23.16H297.837L315.181 0.439999H321.485L322.317 23.16ZM316.173 13.24L315.949 7L311.181 13.24H316.173ZM349.421 3.8L348.141 7.32C347.885 8.06667 347.426 8.73867 346.765 9.336C346.125 9.912 345.421 10.3067 344.653 10.52C345.57 10.8613 346.029 11.544 346.029 12.568C346.029 12.9307 345.965 13.3147 345.837 13.72L342.381 23.16H337.261L341.005 12.92H331.725L327.981 23.16H322.861L331.149 0.439999H347.309C348.013 0.439999 348.578 0.642665 349.005 1.048C349.432 1.45333 349.645 1.98667 349.645 2.648C349.645 3.01067 349.57 3.39467 349.421 3.8ZM343.789 5.24H334.509L333.453 8.12H342.733L343.789 5.24ZM370.194 0.439999L368.434 5.24H355.634L350.866 18.36H363.666L361.906 23.16H347.346C346.642 23.16 346.077 22.9573 345.65 22.552C345.223 22.1467 345.01 21.6133 345.01 20.952C345.01 20.5893 345.074 20.2053 345.202 19.8L351.026 3.8C351.367 2.88267 351.986 2.09333 352.882 1.432C353.778 0.770665 354.695 0.439999 355.634 0.439999H370.194ZM391.325 0.439999L383.037 23.16H377.917L381.661 12.92H372.381L368.637 23.16H363.517L371.805 0.439999H376.925L374.109 8.12H383.389L386.205 0.439999H391.325Z" fill="#158F46"/>
</svg>