<svg width="5158" height="1938" viewBox="0 0 5158 1938" fill="none" xmlns="http://www.w3.org/2000/svg">
<path d="M966.986 1937.06C1498.24 1937.06 1934.6 1490.71 1933.92 965.857C1933.89 938.59 1911.24 917.225 1883.97 917.225H791.053C762.684 917.225 739.686 940.227 739.686 968.602C739.686 996.976 762.684 1019.98 791.053 1019.98L1491.65 1019.98C1527.15 1019.98 1551.76 1055.23 1535.79 1086.94C1436.34 1284.41 1231.82 1419.86 995.666 1419.86C719.487 1419.86 486.571 1234.59 414.378 981.538C411.969 973.093 411.969 964.11 414.378 955.665C486.571 702.608 719.487 517.34 995.666 517.34C1176.7 517.34 1339.14 596.942 1449.91 723.061C1467 742.513 1495.38 748.489 1517.8 735.546L1797.84 573.901C1821.06 560.499 1830.16 531.387 1817.38 507.821C1653.66 205.946 1334.23 1 966.986 1C432.935 1 0 434.402 0 969.03C0 1503.66 432.935 1937.06 966.986 1937.06Z" fill="#158F46"/>
<path d="M2374 466.761H2406.04C2430.26 466.761 2451.86 462.963 2470.85 455.367C2489.84 447.771 2505.74 437.327 2518.56 424.034C2531.85 410.741 2541.82 395.075 2548.47 377.034C2555.59 358.519 2559.15 338.343 2559.15 316.504C2559.15 295.141 2555.59 275.201 2548.47 256.686C2541.35 238.171 2531.14 222.267 2517.85 208.975C2505.03 195.682 2489.12 185.237 2470.13 177.641C2451.14 170.045 2429.78 166.247 2406.04 166.247H2374V466.761ZM2234.42 48.0359H2440.94C2477.49 48.0359 2511.67 55.3945 2543.48 70.1115C2575.77 84.8286 2603.78 104.531 2627.51 129.217C2651.72 153.429 2670.71 181.914 2684.48 214.671C2698.25 246.954 2705.13 280.898 2705.13 316.504C2705.13 351.635 2698.25 385.58 2684.48 418.337C2671.19 450.62 2652.44 479.104 2628.22 503.791C2604.49 528.478 2576.48 548.18 2544.19 562.897C2512.39 577.614 2477.97 584.973 2440.94 584.973H2234.42V48.0359ZM3049.18 349.262C3044.91 331.221 3036.13 316.742 3022.83 305.823C3009.54 294.903 2993.4 289.444 2974.41 289.444C2954.47 289.444 2938.09 294.666 2925.27 305.11C2912.93 315.555 2905.1 330.272 2901.77 349.262H3049.18ZM2898.21 424.034C2898.21 479.579 2924.32 507.352 2976.54 507.352C3004.55 507.352 3025.68 495.958 3039.92 473.17H3164.54C3139.38 556.725 3076.48 598.503 2975.83 598.503C2944.97 598.503 2916.73 593.993 2891.09 584.973C2865.45 575.478 2843.38 562.185 2824.86 545.094C2806.82 528.003 2792.82 507.589 2782.85 483.852C2772.88 460.115 2767.89 433.529 2767.89 404.095C2767.89 373.711 2772.64 346.413 2782.14 322.201C2791.63 297.514 2805.16 276.626 2822.73 259.535C2840.29 242.444 2861.42 229.389 2886.11 220.368C2911.27 210.873 2939.51 206.126 2970.85 206.126C3001.71 206.126 3029.48 210.873 3054.17 220.368C3078.85 229.389 3099.74 242.681 3116.83 260.247C3133.92 277.813 3146.98 299.413 3156 325.05C3165.02 350.211 3169.53 378.696 3169.53 410.504V424.034H2898.21ZM3562.95 166.247H3394.89V255.974H3547.99V374.186H3394.89V584.973H3255.31V48.0359H3562.95V166.247ZM3762.23 219.656V584.973H3633.34V219.656H3762.23ZM3624.79 79.3691C3624.79 69.3994 3626.69 60.1419 3630.49 51.5965C3634.29 42.5764 3639.51 34.743 3646.16 28.0966C3652.8 21.4502 3660.4 16.228 3668.95 12.43C3677.97 8.63206 3687.46 6.73308 3697.43 6.73308C3707.4 6.73308 3716.66 8.63206 3725.2 12.43C3734.22 16.228 3742.06 21.4502 3748.7 28.0966C3755.35 34.743 3760.57 42.5764 3764.37 51.5965C3768.17 60.1419 3770.07 69.3994 3770.07 79.3691C3770.07 89.3387 3768.17 98.8336 3764.37 107.854C3760.57 116.399 3755.35 123.995 3748.7 130.642C3742.06 137.288 3734.22 142.51 3725.2 146.308C3716.66 150.106 3707.4 152.005 3697.43 152.005C3687.46 152.005 3677.97 150.106 3668.95 146.308C3660.4 142.51 3652.8 137.288 3646.16 130.642C3639.51 123.995 3634.29 116.399 3630.49 107.854C3626.69 98.8336 3624.79 89.3387 3624.79 79.3691ZM2495.77 946.459H2772.78C2772.78 974.944 2771.6 1000.82 2769.22 1024.08C2766.85 1047.34 2762.1 1068.94 2754.98 1088.88C2745.01 1116.89 2731.48 1141.82 2714.39 1163.65C2697.3 1185.02 2677.12 1203.06 2653.86 1217.78C2631.07 1232.02 2605.91 1242.94 2578.38 1250.53C2550.84 1258.13 2521.88 1261.93 2491.5 1261.93C2449.72 1261.93 2411.5 1255.04 2376.85 1241.28C2342.67 1227.51 2313.23 1208.28 2288.54 1183.59C2263.86 1158.43 2244.63 1128.52 2230.86 1093.87C2217.1 1058.74 2210.21 1020.04 2210.21 977.792C2210.21 936.015 2216.86 897.798 2230.15 863.141C2243.92 828.01 2263.15 798.101 2287.83 773.414C2312.99 748.728 2343.14 729.5 2378.27 715.733C2413.4 701.965 2452.57 695.081 2495.77 695.081C2551.79 695.081 2600.93 707.187 2643.18 731.399C2685.43 755.611 2718.9 793.116 2743.59 843.914L2611.13 898.747C2598.79 869.313 2582.65 848.187 2562.71 835.369C2543.25 822.551 2520.93 816.141 2495.77 816.141C2474.88 816.141 2455.89 820.177 2438.8 828.247C2421.71 835.843 2406.99 847 2394.65 861.717C2382.78 875.959 2373.29 893.288 2366.17 913.702C2359.52 934.116 2356.2 956.903 2356.2 982.065C2356.2 1004.85 2359.04 1025.98 2364.74 1045.44C2370.91 1064.91 2379.93 1081.76 2391.8 1096C2403.67 1110.25 2418.39 1121.4 2435.95 1129.47C2453.52 1137.07 2473.93 1140.87 2497.19 1140.87C2510.96 1140.87 2524.26 1139.44 2537.07 1136.59C2549.89 1133.27 2561.29 1128.29 2571.26 1121.64C2581.7 1114.52 2590.24 1105.5 2596.89 1094.58C2603.54 1083.66 2608.05 1070.37 2610.42 1054.7H2495.77V946.459ZM2848.9 881.656H2977.79V941.474C2991.56 919.636 3008.41 903.02 3028.35 891.626C3048.29 879.757 3071.55 873.823 3098.14 873.823C3101.46 873.823 3105.02 873.823 3108.82 873.823C3113.09 873.823 3117.84 874.298 3123.06 875.247V998.444C3105.97 989.898 3087.46 985.625 3067.52 985.625C3037.61 985.625 3015.06 994.646 2999.87 1012.69C2985.15 1030.25 2977.79 1056.13 2977.79 1090.31V1246.97H2848.9V881.656ZM3305.17 1062.53C3305.17 1074.88 3307.31 1086.27 3311.58 1096.72C3316.33 1106.69 3322.26 1115.47 3329.38 1123.06C3336.98 1130.66 3345.76 1136.59 3355.73 1140.87C3366.17 1145.14 3377.09 1147.28 3388.49 1147.28C3399.88 1147.28 3410.56 1145.14 3420.53 1140.87C3430.98 1136.59 3439.76 1130.66 3446.88 1123.06C3454.48 1115.47 3460.41 1106.69 3464.68 1096.72C3469.43 1086.27 3471.81 1075.11 3471.81 1063.25C3471.81 1051.85 3469.43 1041.17 3464.68 1031.2C3460.41 1020.76 3454.48 1011.74 3446.88 1004.14C3439.76 996.545 3430.98 990.61 3420.53 986.338C3410.56 982.065 3399.88 979.929 3388.49 979.929C3377.09 979.929 3366.17 982.065 3355.73 986.338C3345.76 990.61 3336.98 996.545 3329.38 1004.14C3322.26 1011.74 3316.33 1020.52 3311.58 1030.49C3307.31 1040.46 3305.17 1051.14 3305.17 1062.53ZM3169.16 1061.11C3169.16 1034.05 3174.62 1008.89 3185.53 985.625C3196.45 961.888 3211.65 941.474 3231.11 924.383C3250.57 906.818 3273.6 893.05 3300.19 883.08C3327.25 873.111 3356.68 868.126 3388.49 868.126C3419.82 868.126 3448.78 873.111 3475.37 883.08C3502.43 892.575 3525.69 906.106 3545.15 923.671C3565.09 940.762 3580.52 961.413 3591.44 985.625C3602.36 1009.36 3607.82 1035.71 3607.82 1064.67C3607.82 1093.63 3602.12 1120.22 3590.73 1144.43C3579.81 1168.16 3564.62 1188.82 3545.15 1206.38C3525.69 1223.47 3502.19 1236.77 3474.65 1246.26C3447.59 1255.76 3418.16 1260.5 3386.35 1260.5C3355.02 1260.5 3326.06 1255.76 3299.47 1246.26C3272.89 1236.77 3249.86 1223.24 3230.4 1205.67C3211.41 1188.1 3196.45 1167.22 3185.53 1143C3174.62 1118.32 3169.16 1091.02 3169.16 1061.11ZM3762.94 881.656L3850.53 1073.93L3941.68 881.656H4022.86L4114.01 1079.62L4205.88 881.656H4349.01L4158.16 1246.97H4072L3980.85 1046.87L3893.97 1246.97H3806.38L3619.09 881.656H3762.94ZM4537.29 989.186V1246.97H4408.4V989.186H4365.67V881.656H4408.4V771.99H4537.29V881.656H4610.64V989.186H4537.29ZM4675.79 655.915H4804.68V927.944C4822.24 906.58 4840.05 892.338 4858.09 885.217C4876.13 877.621 4897.25 873.823 4921.47 873.823C4967.52 873.823 5002.17 886.641 5025.43 912.277C5049.17 937.439 5061.04 971.62 5061.04 1014.82V1246.97H4932.15V1062.53C4932.15 1044.02 4930.72 1029.06 4927.87 1017.67C4925.03 1006.28 4920.28 997.494 4913.63 991.322C4902.24 981.353 4888.47 976.368 4872.33 976.368C4850.49 976.368 4833.64 983.014 4821.77 996.307C4810.38 1009.13 4804.68 1027.64 4804.68 1051.85V1246.97H4675.79V655.915ZM2374 1372.04V1908.97H2234.42V1372.04H2374ZM2474.06 1543.66H2602.96V1589.94C2620.52 1568.58 2638.32 1554.34 2656.36 1547.22C2674.4 1539.62 2695.53 1535.82 2719.74 1535.82C2745.38 1535.82 2767.22 1540.1 2785.26 1548.64C2803.77 1556.71 2819.44 1568.34 2832.26 1583.53C2842.7 1595.88 2849.82 1609.65 2853.62 1624.84C2857.42 1640.03 2859.32 1657.36 2859.32 1676.82V1908.97H2730.42V1724.53C2730.42 1706.49 2729 1692.01 2726.15 1681.09C2723.78 1669.7 2719.27 1660.68 2712.62 1654.03C2706.92 1648.34 2700.52 1644.3 2693.39 1641.93C2686.27 1639.55 2678.68 1638.37 2670.61 1638.37C2648.77 1638.37 2631.91 1645.01 2620.05 1658.31C2608.65 1671.13 2602.96 1689.64 2602.96 1713.85V1908.97H2474.06V1543.66ZM3066.59 1725.25C3066.59 1737.11 3068.72 1748.27 3073 1758.72C3077.27 1768.69 3082.97 1777.47 3090.09 1785.06C3097.68 1792.66 3106.47 1798.59 3116.44 1802.87C3126.88 1807.14 3138.04 1809.28 3149.91 1809.28C3161.3 1809.28 3171.98 1807.14 3181.95 1802.87C3192.4 1798.59 3201.18 1792.66 3208.3 1785.06C3215.9 1777.47 3221.83 1768.69 3226.1 1758.72C3230.85 1748.75 3233.22 1738.06 3233.22 1726.67C3233.22 1715.28 3230.85 1704.59 3226.1 1694.63C3221.83 1684.18 3215.9 1675.16 3208.3 1667.56C3201.18 1659.97 3192.4 1654.03 3181.95 1649.76C3171.98 1645.49 3161.3 1643.35 3149.91 1643.35C3138.51 1643.35 3127.59 1645.49 3117.15 1649.76C3107.18 1654.03 3098.4 1659.97 3090.8 1667.56C3083.68 1675.16 3077.74 1683.94 3073 1693.91C3068.72 1703.41 3066.59 1713.85 3066.59 1725.25ZM3228.95 1317.91H3358.56V1908.97H3228.95V1868.38C3201.42 1903.04 3164.15 1920.37 3117.15 1920.37C3090.56 1920.37 3066.11 1915.38 3043.8 1905.41C3021.49 1895.44 3002.02 1881.67 2985.41 1864.11C2968.79 1846.54 2955.74 1825.89 2946.24 1802.16C2937.22 1778.42 2932.71 1752.78 2932.71 1725.25C2932.71 1699.14 2936.98 1674.45 2945.53 1651.19C2954.55 1627.45 2967.13 1606.8 2983.27 1589.23C2999.41 1571.67 3018.64 1557.9 3040.95 1547.93C3063.74 1537.48 3088.66 1532.26 3115.72 1532.26C3161.3 1532.26 3199.04 1548.17 3228.95 1579.97V1317.91ZM3713.31 1673.26C3709.04 1655.22 3700.26 1640.74 3686.97 1629.82C3673.67 1618.9 3657.53 1613.44 3638.54 1613.44C3618.6 1613.44 3602.22 1618.67 3589.41 1629.11C3577.06 1639.55 3569.23 1654.27 3565.91 1673.26H3713.31ZM3562.34 1748.03C3562.34 1803.58 3588.46 1831.35 3640.68 1831.35C3668.69 1831.35 3689.81 1819.96 3704.06 1797.17H3828.68C3803.52 1880.73 3740.61 1922.5 3639.97 1922.5C3609.11 1922.5 3580.86 1917.99 3555.22 1908.97C3529.59 1899.48 3507.51 1886.18 3489 1869.09C3470.96 1852 3456.95 1831.59 3446.98 1807.85C3437.01 1784.11 3432.03 1757.53 3432.03 1728.09C3432.03 1697.71 3436.77 1670.41 3446.27 1646.2C3455.76 1621.51 3469.29 1600.63 3486.86 1583.53C3504.43 1566.44 3525.55 1553.39 3550.24 1544.37C3575.4 1534.87 3603.65 1530.13 3634.98 1530.13C3665.84 1530.13 3693.61 1534.87 3718.3 1544.37C3742.99 1553.39 3763.87 1566.68 3780.96 1584.25C3798.06 1601.81 3811.11 1623.41 3820.13 1649.05C3829.15 1674.21 3833.66 1702.7 3833.66 1734.5V1748.03H3562.34ZM4026.02 1711L3877.9 1543.66H4045.96L4108.62 1619.14L4172.71 1543.66H4340.77L4189.09 1711L4372.11 1908.97H4201.2L4107.91 1800.73L4013.91 1908.97H3843.71L4026.02 1711Z" fill="#158F46"/>
</svg>
